# xmcd CD database file
#
# Track frame offsets:
#	150
#	10738
#	21364
#	41461
#	49934
#	62368
#	77049
#	89360
#	103979
#	111219
#	121207
#	131701
#	143519
#	161271
#	174914
#	187612
#	206860
#	217232
#	231747
#	245846
#	261990
#	276400
#	291643
#	300220
#
# Disc length: 4251 seconds
#
# Revision: 2
# Processed by: cddbd v1.5.2PL0 Copyright (c) Steve Scherf et al.
# Submitted via: CDex 1.70beta2
#
DISCID=62109918
DTITLE=Animals - A's B's and Ep's
DYEAR=2003
DGENRE=Rock
TTITLE0=Baby Let Me Take You Home
TTITLE1=Gonna Send You Back To Walker
TTITLE2=House Of The Rising Sun
TTITLE3=Talkin' 'bout You
TTITLE4=I'm Crying
TTITLE5=Boom Boom
TTITLE6=Around And Around
TTITLE7=Dimples
TTITLE8=I've Been Around
TTITLE9=Don`T Let Me Be Misunderstood
TTITLE10=Club-A-Gogo
TTITLE11=Bring It On Home To Me
TTITLE12=For Miss Caulker
TTITLE13=I'm In Love Again
TTITLE14=Bury My Body
TTITLE15=I'm Mad Again
TTITLE16=She Said Yeah
TTITLE17=We Gotta Get Out Of This Place
TTITLE18=It's My Life
TTITLE19=I`M Going To Change The World
TTITLE20=How You've Changed
TTITLE21=I Believe To My Soul
TTITLE22=Let The Good Times Roll
TTITLE23=Worried Life Blues
EXTD=YEAR: 2003
EXTT0=
EXTT1=
EXTT2=
EXTT3=
EXTT4=
EXTT5=
EXTT6=
EXTT7=
EXTT8=
EXTT9=
EXTT10=
EXTT11=
EXTT12=
EXTT13=
EXTT14=
EXTT15=
EXTT16=
EXTT17=
EXTT18=
EXTT19=
EXTT20=
EXTT21=
EXTT22=
EXTT23=
PLAYORDER=
